<svg xmlns="http://www.w3.org/2000/svg" viewBox="0 0 64 64">
  <rect width="64" height="64" fill="#050404"/>
  <g transform="translate(32 34)">
    <g transform="rotate(-145)">
      <path d="M 0 0 C -4 -6 -5 -15 0 -22 C 5 -15 4 -6 0 0 Z" fill="#0a0404" stroke="#5a0a0a" stroke-width="0.5"/>
    </g>
    <g transform="rotate(145)">
      <path d="M 0 0 C -4 -6 -5 -15 0 -22 C 5 -15 4 -6 0 0 Z" fill="#0a0404" stroke="#5a0a0a" stroke-width="0.5"/>
    </g>
    <g transform="rotate(-72)">
      <path d="M 0 0 C -7 -8 -8 -22 -1 -30 C 7 -23 6 -8 0 0 Z" fill="#0a0404" stroke="#5a0a0a" stroke-width="0.5"/>
    </g>
    <g transform="rotate(72)">
      <path d="M 0 0 C 7 -8 8 -22 1 -30 C -7 -23 -6 -8 0 0 Z" fill="#0a0404" stroke="#5a0a0a" stroke-width="0.5"/>
    </g>
    <path d="M 0 0 C -6 -6 -7 -23 0 -30 C 7 -23 6 -6 0 0 Z" fill="#0a0404" stroke="#5a0a0a" stroke-width="0.6"/>
    <path d="M 0 0 C -6 2 -9 6 -8 11 C -9 15 -6 18 -3 16 C -2 19 2 19 3 16 C 6 18 9 15 8 11 C 9 6 6 2 0 0 Z" fill="#0c0606" stroke="#7a1414" stroke-width="0.5"/>
    <circle cx="0" cy="-1" r="2" fill="#a01818"/>
  </g>
</svg>
